<svg width="1512" height="119" viewBox="0 0 1512 119" fill="none" xmlns="http://www.w3.org/2000/svg">
<path d="M1512 72.5631C1488.49 58.042 1464.66 39.0744 1417.63 39.0744C1349.72 39.0744 1350.38 78.385 1281.78 78.385C1218.46 78.385 1211.19 44.9554 1145.23 44.9554C1091.12 44.9469 1091.78 73.4068 1008.65 73.4068C903.108 73.4068 915.641 0 786.341 0C654.406 0 642.534 102.77 500.039 102.77C381.299 102.77 360.839 56.4642 273.757 56.4642C182.729 56.4642 155.631 97.4454 94.5007 97.4454C47.2504 97.4454 23.6252 87.1432 0 72.5462L0 118.109L1512 118.109V72.5631Z" fill="#F7F6F0"/>
</svg>
